<svg width="24" height="24" viewBox="0 0 24 24" fill="none" xmlns="http://www.w3.org/2000/svg">
<path fill-rule="evenodd" clip-rule="evenodd" d="M12.0001 22.2857C15.4287 19.4261 16.5716 15.9975 16.5716 12C16.5716 8.00252 15.4287 4.57395 12.0001 1.71429C8.57157 4.57395 7.42871 8.00252 7.42871 12C7.42871 15.9975 8.57157 19.4261 12.0001 22.2857Z" stroke="#008222" stroke-width="1.5" stroke-linecap="round" stroke-linejoin="round"/>
<path d="M7.89233 16.4134C7.40724 16.6936 6.96109 17.0374 6.55388 17.4446C5.275 18.7235 4.62228 20.3863 4.5957 22.4332C7.4623 22.3077 9.03236 21.5594 10.2249 20.5507M16.0711 16.4134C16.5562 16.6936 17.0024 17.0374 17.4096 17.4446C18.6884 18.7235 19.3412 20.3863 19.3677 22.4332C16.5011 22.3077 14.9311 21.5594 13.7386 20.5507L16.0711 16.4134Z" stroke="#008222" stroke-width="1.5" stroke-linecap="round" stroke-linejoin="round"/>
<path d="M11.9996 10.8571C13.2619 10.8571 14.2853 9.83379 14.2853 8.57142C14.2853 7.30905 13.2619 6.28571 11.9996 6.28571C10.7372 6.28571 9.71387 7.30905 9.71387 8.57142C9.71387 9.83379 10.7372 10.8571 11.9996 10.8571Z" stroke="#008222" stroke-width="1.5" stroke-linecap="round" stroke-linejoin="round"/>
</svg>
