<svg width="24" height="24" viewBox="0 0 24 24" fill="none" xmlns="http://www.w3.org/2000/svg">
<path fill-rule="evenodd" clip-rule="evenodd" d="M12.5716 18.8769C17.621 18.8769 21.7144 15.4187 21.7144 11.1527C21.7144 6.8868 17.621 3.42859 12.5716 3.42859C7.52211 3.42859 3.42871 6.8868 3.42871 11.1527C3.42871 12.8183 4.05275 14.3608 5.11408 15.6224L4.00014 20.8572L8.47565 18.0603C9.70778 18.5828 11.099 18.8769 12.5716 18.8769Z" stroke="#FC8B06" stroke-width="1.5" stroke-linecap="round" stroke-linejoin="round"/>
<path fill-rule="evenodd" clip-rule="evenodd" d="M12.5704 12.5714C13.1418 12.5714 13.7132 12 13.7132 11.4286C13.7132 10.8571 13.1418 10.2857 12.5704 10.2857C11.999 10.2857 11.4289 10.8571 11.4289 11.4286C11.4289 12 11.999 12.5714 12.5704 12.5714ZM7.99895 12.5714C8.57038 12.5714 9.14181 12 9.14181 11.4286C9.14181 10.8571 8.57038 10.2857 7.99895 10.2857C7.42753 10.2857 6.85742 10.8571 6.85742 11.4286C6.85742 12 7.42753 12.5714 7.99895 12.5714ZM17.1425 12.5714C17.7142 12.5714 18.286 12 18.286 11.4286C18.286 10.8571 17.7142 10.2857 17.1425 10.2857C16.5707 10.2857 16.0003 10.8571 16.0003 11.4286C16.0003 12 16.5707 12.5714 17.1425 12.5714Z" fill="#FC8B06"/>
</svg>
