<svg width="24" height="24" viewBox="0 0 24 24" fill="none" xmlns="http://www.w3.org/2000/svg">
<path fill-rule="evenodd" clip-rule="evenodd" d="M6.28571 4H17.7143C18.9767 4 20 5.02335 20 6.28571V17.7143C20 18.9767 18.9767 20 17.7143 20H6.28571C5.02335 20 4 18.9767 4 17.7143V6.28571C4 5.02335 5.02335 4 6.28571 4Z" stroke="#723680" stroke-width="1.5" stroke-linecap="round" stroke-linejoin="round"/>
<path fill-rule="evenodd" clip-rule="evenodd" d="M6.28571 6.28571H17.7143C18.9767 6.28571 20 7.30906 20 8.57143V6.28571C20 5.14286 18.9767 4 17.7143 4H6.28571C5.02335 4 4 5.14286 4 6.28571V8.57143C4 7.30906 5.02335 6.28571 6.28571 6.28571Z" fill="#723680" stroke="#723680" stroke-width="1.5" stroke-linecap="round" stroke-linejoin="round"/>
<path d="M8.56934 12H9.71219" stroke="#723680" stroke-width="1.5" stroke-linecap="round" stroke-linejoin="round"/>
<path d="M8.56934 9.71429H13.1373" stroke="#723680" stroke-width="1.5" stroke-linecap="round" stroke-linejoin="round"/>
<path d="M8.56934 14.2857H15.423" stroke="#723680" stroke-width="1.5" stroke-linecap="round" stroke-linejoin="round"/>
<path d="M8.56934 16.5714H13.1373" stroke="#723680" stroke-width="1.5" stroke-linecap="round" stroke-linejoin="round"/>
</svg>
