<svg width="55" height="48" viewBox="0 0 55 48" fill="none" xmlns="http://www.w3.org/2000/svg">
<path d="M10.0554 29.6881C10.504 29.9629 10.8549 30.3706 11.0859 30.8448C11.3257 31.3323 11.8365 31.6736 12.4139 31.6603C12.4183 31.6603 12.4228 31.6603 12.4272 31.6603C12.8403 31.647 13.2267 31.8597 13.4221 32.2231L13.8707 33.0563C13.964 33.2247 13.9995 33.4197 13.9862 33.6103C13.9862 33.6457 13.9818 33.6856 13.9862 33.7211C13.9862 33.7388 13.9906 33.7565 13.9906 33.7787C14.0528 34.3992 14.6835 34.7936 15.2787 34.6207C15.8872 34.4435 17.2508 34.213 18.2768 35.2323C19.325 36.2783 22.8649 37.271 24.4195 37.6654C24.6016 37.7142 24.7215 37.4793 24.5794 37.3596L13.9995 28.4737C9.59349 24.7776 6.96852 19.3618 6.89302 13.6181C6.89302 13.5339 6.89302 13.4453 6.89302 13.3611C6.89302 11.154 7.25278 9.03558 7.91902 7.05453C7.96343 6.92158 7.7991 6.81964 7.69694 6.91714L5.30737 9.31035C5.13415 9.50092 5.02755 9.74911 5.02755 10.0283C5.02755 10.1657 5.0542 10.2987 5.10306 10.4183C5.14748 10.5247 5.16524 10.6399 5.14748 10.7551C5.12083 10.959 4.99646 11.1318 4.8188 11.2338C4.50345 11.4199 4.29025 11.7612 4.29025 12.1512C4.29025 12.355 4.34799 12.55 4.45015 12.7096C4.72109 13.1439 4.8188 13.6624 4.70332 14.1632L4.68111 14.2696C4.5834 14.6995 4.33911 15.0851 3.98823 15.3554C3.64623 15.6125 3.42859 16.0246 3.42859 16.4855C3.42859 16.88 3.58849 17.239 3.85054 17.496C4.51677 18.1608 4.86322 19.0738 4.85878 20.0133V20.0177C4.85878 20.6648 4.66335 21.2897 4.33467 21.8437C4.21031 22.0564 4.1348 22.3046 4.1348 22.5705C4.1348 23.1865 4.52566 23.7095 5.06753 23.9134C5.46727 24.0596 5.83148 24.2901 6.11574 24.6047L7.83463 26.4927C8.29211 26.9935 8.52307 27.6539 8.51863 28.3275C8.51863 28.3319 8.51863 28.3319 8.51863 28.3364C8.51863 28.8327 8.85619 29.2449 9.31811 29.3646C9.58017 29.431 9.82445 29.5463 10.0554 29.6881Z" fill="url(#paint0_linear)"/>
<path d="M24.9258 35.822L24.9213 35.8043C24.8325 35.1173 24.6371 34.4481 24.3439 33.8188L24.264 33.6504C24.2151 33.544 24.1174 33.4731 24.0019 33.4554C23.1358 33.3224 22.4252 32.6842 22.2075 31.8377C22.1587 31.6472 22.1009 31.4921 22.0299 31.3635V31.3591C21.9677 31.2483 21.9011 31.1508 21.83 31.0666C20.8395 29.9276 20.2932 28.4695 20.2932 26.9583C20.2932 26.6347 20.3199 26.3068 20.3687 25.9921C20.3954 25.8237 20.4087 25.6553 20.4176 25.4913C20.4398 24.7024 19.8579 24.0066 19.0673 23.9402C19.0451 23.9402 19.0229 23.9357 19.0007 23.9357C18.9918 23.9357 18.9874 23.9357 18.9785 23.9357C18.3789 23.918 17.8814 23.4615 17.8326 22.8632C17.8059 22.5264 17.8903 22.1851 18.068 21.8971C18.2767 21.5602 18.3967 21.1614 18.3967 20.7359C18.3967 20.1819 18.1924 19.6811 17.8592 19.2911C17.1353 18.4579 16.7266 17.4032 16.7266 16.3041C16.7266 15.6083 16.9132 14.9124 17.304 14.3363C17.4195 14.1679 17.4861 13.964 17.4861 13.7424C17.4861 13.5563 17.4373 13.3835 17.3529 13.2328C17.2507 13.0466 17.1841 12.8428 17.1752 12.63C17.1708 12.4616 17.193 12.2932 17.2507 12.1381C17.2952 12.0229 17.3174 11.8943 17.3174 11.7614C17.3174 11.398 17.1308 11.0745 16.851 10.8839C16.6378 10.7376 16.469 10.5382 16.3802 10.2944L16.3313 10.1615C16.1759 9.7316 16.2914 9.25295 16.62 8.93386C16.6467 8.90727 16.6778 8.88068 16.7044 8.84965L18.1924 7.28521C18.641 6.84645 19.2583 6.57168 19.9335 6.57168C20.5508 6.57168 21.1149 6.7977 21.5502 7.16998C21.5413 7.14339 21.528 7.12123 21.5191 7.09907C21.0838 6.17281 20.0267 5.70746 19.0363 5.97337L17.6416 6.35008C16.7933 6.58054 15.9138 6.66474 15.0344 6.66031C15.03 6.66031 15.03 6.66031 15.0255 6.66031C14.5192 6.66031 14.0839 6.96611 13.8974 7.40487C13.6797 7.91896 13.3644 8.38431 13.0002 8.80977L12.9513 8.86738C12.5604 9.32386 12.0896 9.70057 11.5877 10.0285C11.3212 10.2014 11.1347 10.4939 11.1036 10.8263C11.0858 11.0523 11.1347 11.265 11.2413 11.4467C11.5744 12.0229 11.6943 12.7009 11.5566 13.3524L11.5478 13.4056C11.4056 14.0837 10.9926 14.6731 10.424 15.072C10.0554 15.3335 9.81555 15.7589 9.81555 16.242C9.81555 16.6187 9.96212 16.96 10.1975 17.217C10.504 17.545 10.695 17.966 10.7616 18.4092L10.7749 18.4934C10.8815 19.2291 10.6284 19.9869 10.0687 20.4744C10.0643 20.4789 10.0598 20.4833 10.0554 20.4877C9.76225 20.7536 9.68674 21.1791 9.85996 21.5337C10.3885 22.6106 11.0237 23.6388 11.7565 24.6005L13.0979 26.1827C13.0979 26.1827 13.0979 26.1827 13.1023 26.1871C13.1512 26.2359 13.1956 26.2846 13.2444 26.3378C13.2711 26.3644 13.2977 26.391 13.3244 26.422C13.3599 26.4575 13.3955 26.4929 13.431 26.5284C13.4576 26.555 13.4843 26.5815 13.5109 26.6081C13.5465 26.6436 13.582 26.6791 13.6175 26.7145C13.6442 26.7411 13.6708 26.7677 13.6975 26.7943C13.733 26.8297 13.773 26.8652 13.8085 26.9006C13.8352 26.9272 13.8618 26.9494 13.8885 26.976C13.9284 27.0114 13.964 27.0469 14.004 27.0823C14.0306 27.1045 14.0572 27.1311 14.0795 27.1533C14.1194 27.1931 14.1638 27.2286 14.2038 27.2641C14.226 27.2862 14.2527 27.3084 14.2749 27.3261C14.3237 27.366 14.3682 27.4103 14.417 27.4502C14.4348 27.4679 14.4525 27.4812 14.4748 27.4989C14.5414 27.5566 14.608 27.6142 14.6791 27.6718L24.6371 36.0347C24.7659 36.1411 24.9569 36.0303 24.9258 35.8663C24.9302 35.8441 24.9302 35.8309 24.9258 35.822Z" fill="url(#paint1_linear)"/>
<path d="M27.4308 3.53568C27.0044 3.53568 26.6358 3.78829 26.4715 4.15614C26.3826 4.35557 26.2316 4.51955 26.054 4.64364L26.0317 4.66137C25.9118 4.74557 25.7741 4.80319 25.632 4.83864C25.3522 4.91399 25.1479 5.17103 25.1479 5.47683C25.1479 5.68956 25.0146 5.88013 24.8192 5.95991C24.4905 6.09286 24.2596 6.41196 24.2596 6.78423C24.2596 6.8906 24.2773 6.9881 24.3129 7.08117C24.3706 7.23628 24.3795 7.4047 24.3617 7.57311C24.3262 7.85675 24.1841 8.11379 23.962 8.29107C23.3357 8.80073 22.936 9.57631 22.936 10.445C22.936 10.6754 22.9626 10.897 23.0159 11.1097C23.0381 11.2072 23.0381 11.3092 23.007 11.4067C22.9626 11.5485 22.8649 11.6593 22.7405 11.7346C22.4341 11.9119 22.2298 12.2399 22.2298 12.6166C22.2298 12.7451 22.252 12.8692 22.2964 12.9844C22.4652 13.4276 22.5895 13.8841 22.6695 14.3494C22.7627 14.8857 22.7139 15.4352 22.5229 15.9449L22.4963 16.0114C22.363 16.3659 22.1587 16.685 21.91 16.9687C21.7767 17.1238 21.6879 17.3144 21.6701 17.5227C21.6524 17.6955 21.679 17.8595 21.7367 18.0102C21.8522 18.3027 21.8478 18.635 21.7012 18.9143C21.2038 19.8582 20.9195 20.9308 20.9195 22.0697C20.9195 22.6282 21.106 23.4037 21.297 24.0419C21.5013 24.7289 21.5369 25.4468 21.4258 26.1559C21.3859 26.4174 21.3637 26.6878 21.3637 26.9625C21.3637 28.2699 21.8433 29.4621 22.6428 30.3751C22.7716 30.5213 22.8782 30.6853 22.9715 30.8537C23.0959 31.0797 23.1803 31.3235 23.2424 31.5717C23.3535 32.006 23.7177 32.3384 24.1663 32.4049C24.304 32.427 24.4372 32.458 24.566 32.5068L24.7259 32.5688C25.2767 32.786 25.6675 33.2868 25.7475 33.8762L25.9829 35.649C26.0984 36.3448 26.7069 36.8811 27.4397 36.8811C28.1726 36.8811 28.7811 36.3492 28.8966 35.649L29.132 33.8762C29.2119 33.2868 29.6028 32.786 30.1535 32.5688L30.3134 32.5068C30.4422 32.458 30.5755 32.427 30.7132 32.4049C31.1618 32.3384 31.526 32.0016 31.637 31.5717C31.6992 31.3235 31.788 31.0797 31.9079 30.8537C32.0012 30.6809 32.1123 30.5213 32.2366 30.3751C33.0317 29.4621 33.5158 28.2699 33.5158 26.9625C33.5158 26.6878 33.4936 26.4218 33.4536 26.1559C33.3426 25.4513 33.3781 24.7289 33.5824 24.0419C33.769 23.4037 33.96 22.6282 33.96 22.0697C33.96 20.9308 33.6801 19.8582 33.1782 18.9143C33.0317 18.635 33.0228 18.3071 33.1427 18.0102C33.2004 17.8639 33.2271 17.6955 33.2093 17.5227C33.1871 17.3099 33.0983 17.1194 32.9695 16.9687C32.7208 16.685 32.5164 16.3659 32.3832 16.0114L32.3565 15.9449C32.1656 15.4352 32.1123 14.8857 32.21 14.3494C32.2944 13.8841 32.4143 13.4276 32.5831 12.9844C32.6275 12.8692 32.6497 12.7451 32.6497 12.6166C32.6497 12.2399 32.4454 11.9119 32.1389 11.7346C32.0101 11.6593 31.9124 11.5485 31.8724 11.4067C31.8413 11.3092 31.8413 11.2072 31.8635 11.1097C31.9168 10.897 31.9435 10.6754 31.9435 10.445C31.9435 9.57631 31.5437 8.80073 30.9175 8.29107C30.6954 8.11379 30.5533 7.85675 30.5177 7.57311C30.5 7.40913 30.5088 7.24072 30.5666 7.08117C30.5977 6.9881 30.6199 6.88617 30.6199 6.78423C30.6199 6.41196 30.3889 6.09286 30.0602 5.95991C29.8604 5.88013 29.7316 5.68956 29.7316 5.47683C29.7316 5.17103 29.5273 4.91842 29.2474 4.83864C29.1053 4.79876 28.9676 4.74557 28.8477 4.66137L28.8255 4.64364C28.6478 4.51955 28.4968 4.35557 28.408 4.15614C28.2259 3.78829 27.8617 3.53568 27.4308 3.53568Z" fill="url(#paint2_linear)"/>
<path d="M44.8106 29.6881C44.362 29.9629 44.0112 30.3706 43.7802 30.8448C43.5404 31.3323 43.0296 31.6736 42.4522 31.6603C42.4477 31.6603 42.4433 31.6603 42.4388 31.6603C42.0258 31.647 41.6394 31.8597 41.4439 32.2231L40.9953 33.0519C40.9021 33.2203 40.8665 33.4153 40.8799 33.6058C40.8799 33.6413 40.8843 33.6812 40.8799 33.7166C40.8799 33.7344 40.8754 33.7521 40.8754 33.7743C40.8132 34.3947 40.1825 34.7892 39.5874 34.6163C38.9789 34.439 37.6153 34.2086 36.5893 35.2279C35.5411 36.2738 32.0012 37.2666 30.4466 37.661C30.2645 37.7098 30.1446 37.4749 30.2867 37.3552L40.8621 28.4737C45.2681 24.7731 47.8931 19.3618 47.9642 13.6181C47.9642 13.5339 47.9642 13.4453 47.9642 13.3611C47.9642 11.154 47.6044 9.03558 46.9382 7.05453C46.8937 6.92158 47.0581 6.81964 47.1602 6.91714L49.5498 9.31035C49.723 9.50092 49.8296 9.74911 49.8296 10.0283C49.8296 10.1657 49.803 10.2987 49.7541 10.4183C49.7097 10.5247 49.6919 10.6399 49.7097 10.7551C49.7363 10.959 49.8607 11.1318 50.0384 11.2338C50.3537 11.4199 50.5669 11.7612 50.5669 12.1512C50.5669 12.355 50.5092 12.55 50.407 12.7096C50.1361 13.1439 50.0384 13.6624 50.1539 14.1632L50.1761 14.2696C50.2738 14.6995 50.5181 15.0851 50.8689 15.3554C51.2065 15.6169 51.4286 16.0291 51.4286 16.49C51.4286 16.8844 51.2687 17.2434 51.0066 17.5004C50.3404 18.1652 49.994 19.0782 49.9984 20.0177V20.0222C49.9984 20.6692 50.1938 21.2941 50.5225 21.8481C50.6469 22.0608 50.7224 22.309 50.7224 22.5749C50.7224 23.191 50.3315 23.7139 49.7896 23.9178C49.3899 24.064 49.0257 24.2945 48.7414 24.6092L47.0314 26.4927C46.5739 26.9935 46.343 27.6539 46.3474 28.3275C46.3474 28.3319 46.3474 28.3319 46.3474 28.3364C46.3474 28.8327 46.0099 29.2449 45.5479 29.3645C45.2859 29.431 45.0416 29.5463 44.8106 29.6881Z" fill="url(#paint3_linear)"/>
<path d="M29.9402 35.822L29.9447 35.8043C30.0335 35.1173 30.2289 34.4481 30.5221 33.8188L30.602 33.6504C30.6509 33.544 30.7486 33.4731 30.8641 33.4554C31.7302 33.3224 32.4408 32.6842 32.6585 31.8378C32.7073 31.6472 32.7651 31.4921 32.8361 31.3635V31.3591C32.8983 31.2483 32.9649 31.1508 33.036 31.0666C34.0265 29.9276 34.5728 28.4695 34.5728 26.9583C34.5728 26.6347 34.5461 26.3068 34.4973 25.9921C34.4706 25.8237 34.4573 25.6553 34.4484 25.4913C34.4262 24.7024 35.0081 24.0066 35.7987 23.9402C35.8209 23.9402 35.8431 23.9357 35.8653 23.9357C35.8742 23.9357 35.8786 23.9357 35.8875 23.9357C36.4871 23.918 36.9846 23.4615 37.0334 22.8632C37.0601 22.5264 36.9757 22.1851 36.798 21.8971C36.5893 21.5603 36.4693 21.1614 36.4693 20.7359C36.4693 20.1819 36.6737 19.6811 37.0068 19.2911C37.7307 18.4579 38.1394 17.4032 38.1394 16.3041C38.1394 15.6083 37.9528 14.9125 37.562 14.3363C37.4465 14.1679 37.3799 13.964 37.3799 13.7424C37.3799 13.5563 37.4287 13.3835 37.5131 13.2328C37.6153 13.0466 37.6819 12.8428 37.6908 12.63C37.6952 12.4616 37.673 12.2932 37.6153 12.1381C37.5708 12.0229 37.5486 11.8944 37.5486 11.7614C37.5486 11.398 37.7352 11.0745 38.015 10.8839C38.2282 10.7376 38.397 10.5382 38.4858 10.2944L38.5347 10.1615C38.6901 9.7316 38.5746 9.25296 38.246 8.93386C38.2193 8.90727 38.1882 8.88068 38.1616 8.84966L36.6737 7.28521C36.2251 6.84645 35.6077 6.57168 34.9326 6.57168C34.3152 6.57168 33.7511 6.7977 33.3158 7.16998C33.3247 7.14339 33.338 7.12123 33.3469 7.09907C33.7822 6.17281 34.8393 5.70746 35.8298 5.97337L37.2244 6.35008C38.0727 6.58054 38.9522 6.66475 39.8316 6.66031C39.836 6.66031 39.836 6.66031 39.8405 6.66031C40.3468 6.66031 40.7821 6.96611 40.9686 7.40487C41.1863 7.91896 41.5016 8.38431 41.8658 8.80977L41.9147 8.86738C42.3056 9.32387 42.7764 9.70057 43.2783 10.0285C43.5448 10.2014 43.7313 10.4939 43.7624 10.8263C43.7802 11.0523 43.7313 11.265 43.6247 11.4467C43.2916 12.0229 43.1717 12.701 43.3094 13.3524L43.3182 13.4056C43.4604 14.0837 43.8734 14.6731 44.442 15.072C44.8106 15.3335 45.0505 15.7589 45.0505 16.242C45.0505 16.6187 44.9039 16.96 44.6685 17.217C44.362 17.545 44.171 17.966 44.1044 18.4092L44.0911 18.4934C43.9845 19.2291 44.2376 19.9869 44.7973 20.4744C44.8017 20.4789 44.8062 20.4833 44.8106 20.4877C45.1038 20.7537 45.1793 21.1791 45.006 21.5337C44.4775 22.6106 43.8423 23.6388 43.1095 24.6005L41.7681 26.1827C41.7681 26.1827 41.7681 26.1827 41.7637 26.1871C41.7148 26.2359 41.6704 26.2846 41.6216 26.3378C41.5949 26.3644 41.5683 26.391 41.5416 26.422C41.5061 26.4575 41.4705 26.4929 41.435 26.5284C41.4084 26.555 41.3817 26.5816 41.3551 26.6082C41.3195 26.6436 41.284 26.6791 41.2485 26.7145C41.2218 26.7411 41.1952 26.7677 41.1685 26.7943C41.133 26.8297 41.093 26.8652 41.0575 26.9007C41.0308 26.9272 41.0042 26.9494 40.9775 26.976C40.9376 27.0115 40.902 27.0469 40.8621 27.0824C40.8354 27.1045 40.8088 27.1311 40.7865 27.1533C40.7466 27.1932 40.7022 27.2286 40.6622 27.2641C40.64 27.2862 40.6133 27.3084 40.5911 27.3261C40.5423 27.366 40.4978 27.4103 40.449 27.4502C40.4312 27.4679 40.4135 27.4812 40.3912 27.499C40.3246 27.5566 40.258 27.6142 40.1869 27.6718L30.22 36.0259C30.0912 36.1322 29.9003 36.0214 29.9313 35.8575C29.9358 35.8442 29.9358 35.8309 29.9402 35.822Z" fill="url(#paint4_linear)"/>
<path fill-rule="evenodd" clip-rule="evenodd" d="M22.2168 39.3089C22.5636 39.0991 23.0204 39.2512 23.1659 39.6359C23.2844 39.9493 23.1466 40.3118 22.8281 40.4551C21.6173 40.9997 19.6639 41.6997 17.532 42.1155C15.4084 42.5298 13.0557 42.6725 11.0757 42.053C10.8533 41.9834 10.7258 41.7504 10.7872 41.5256C10.8485 41.3008 11.0767 41.1648 11.3036 41.2178C15.9915 42.3137 20.3663 40.4287 22.2168 39.3089Z" fill="#FDB314"/>
<path fill-rule="evenodd" clip-rule="evenodd" d="M32.5662 39.3089C32.2194 39.0991 31.7625 39.2512 31.6171 39.6359C31.4985 39.9493 31.6363 40.3118 31.9549 40.4551C33.1656 40.9997 35.119 41.6997 37.251 42.1155C39.3746 42.5298 41.7272 42.6725 43.7073 42.053C43.9296 41.9834 44.0571 41.7504 43.9958 41.5256C43.9344 41.3008 43.7062 41.1648 43.4793 41.2178C38.7914 42.3137 34.4167 40.4287 32.5662 39.3089Z" fill="#FDB314"/>
<path fill-rule="evenodd" clip-rule="evenodd" d="M10.3994 38.228C10.5764 38.389 10.5893 38.6629 10.4284 38.8399C9.99975 39.3111 9.46499 40.1339 9.25833 41.0442C9.05624 41.9344 9.16796 42.8874 9.98801 43.7245C10.1554 43.8954 10.1526 44.1697 9.98168 44.3371C9.81079 44.5044 9.53655 44.5016 9.36916 44.3307C8.29996 43.2392 8.16121 41.964 8.41355 40.8524C8.66131 39.761 9.28586 38.8085 9.78754 38.257C9.9485 38.08 10.2224 38.0671 10.3994 38.228Z" fill="#FDB314"/>
<path fill-rule="evenodd" clip-rule="evenodd" d="M44.404 38.228C44.227 38.389 44.2141 38.6629 44.375 38.8399C44.8037 39.3111 45.3384 40.1339 45.5451 41.0442C45.7472 41.9344 45.6354 42.8874 44.8154 43.7245C44.648 43.8954 44.6508 44.1697 44.8217 44.3371C44.9926 44.5045 45.2669 44.5016 45.4342 44.3307C46.5034 43.2392 46.6422 41.964 46.3899 40.8524C46.1421 39.761 45.5175 38.8085 45.0159 38.257C44.8549 38.08 44.581 38.0671 44.404 38.228Z" fill="#FDB314"/>
<defs>
<linearGradient id="paint0_linear" x1="14.0353" y1="6.87845" x2="14.0353" y2="37.672" gradientUnits="userSpaceOnUse">
<stop stop-color="#CF1A21"/>
<stop offset="1" stop-color="#FDB314"/>
</linearGradient>
<linearGradient id="paint1_linear" x1="17.3486" y1="5.89914" x2="17.3486" y2="36.0766" gradientUnits="userSpaceOnUse">
<stop stop-color="#CF1A21"/>
<stop offset="1" stop-color="#FDB314"/>
</linearGradient>
<linearGradient id="paint2_linear" x1="27.4397" y1="3.53568" x2="27.4397" y2="36.8811" gradientUnits="userSpaceOnUse">
<stop stop-color="#CF1A21"/>
<stop offset="1" stop-color="#FDB314"/>
</linearGradient>
<linearGradient id="paint3_linear" x1="40.8264" y1="6.87845" x2="40.8264" y2="37.6676" gradientUnits="userSpaceOnUse">
<stop stop-color="#CF1A21"/>
<stop offset="1" stop-color="#FDB314"/>
</linearGradient>
<linearGradient id="paint4_linear" x1="37.5129" y1="5.89914" x2="37.5129" y2="36.0678" gradientUnits="userSpaceOnUse">
<stop stop-color="#CF1A21"/>
<stop offset="1" stop-color="#FDB314"/>
</linearGradient>
</defs>
</svg>
