<svg width="32" height="32" viewBox="0 0 32 32" fill="none" xmlns="http://www.w3.org/2000/svg">
<path d="M16.7641 28.7986L19.7548 26.7053C22.6017 24.7126 24.8054 21.9325 26.0957 18.7059C27.386 15.4792 27.7068 11.9462 27.0188 8.53996C26.9848 8.37211 26.9126 8.21433 26.8079 8.07885C26.7032 7.94336 26.5686 7.83379 26.4148 7.75863L16.0001 2.66663L5.58677 7.75863C5.43264 7.83363 5.29787 7.94313 5.19289 8.07863C5.08791 8.21412 5.01556 8.37198 4.98144 8.53996C4.29341 11.9462 4.6142 15.4792 5.90448 18.7059C7.19476 21.9325 9.39846 24.7126 12.2454 26.7053L15.2361 28.7986C15.4601 28.9552 15.7268 29.0392 16.0001 29.0392C16.2734 29.0392 16.5401 28.9552 16.7641 28.7986V28.7986Z" stroke="#008222" stroke-width="2" stroke-linecap="round" stroke-linejoin="round"/>
<path d="M11.4285 16.1904L14.4761 19.2381L22.0951 11.619" stroke="#008222" stroke-width="2" stroke-linecap="round" stroke-linejoin="round"/>
</svg>
