<svg width="32" height="32" viewBox="0 0 32 32" fill="none" xmlns="http://www.w3.org/2000/svg">
<path fill-rule="evenodd" clip-rule="evenodd" d="M15.9905 28.1809C22.7532 28.1809 28.181 22.8076 28.181 16.0449C28.181 9.28222 22.7532 3.79999 15.9905 3.79999C9.22785 3.79999 3.80005 9.28222 3.80005 16.0449C3.80005 22.8076 9.22785 28.1809 15.9905 28.1809Z" stroke="#141433" stroke-width="2" stroke-linecap="round" stroke-linejoin="round"/>
<path d="M5.32397 11.4189H26.6573" stroke="#141433" stroke-width="2" stroke-linecap="round" stroke-linejoin="round"/>
<path d="M5.32397 20.5618H26.6573" stroke="#141433" stroke-width="2" stroke-linecap="round" stroke-linejoin="round"/>
<path fill-rule="evenodd" clip-rule="evenodd" d="M15.9907 28.1809C19.3721 28.1809 22.086 22.8076 22.086 16.0449C22.086 9.28222 19.3721 3.79999 15.9907 3.79999C12.6094 3.79999 9.89551 9.28222 9.89551 16.0449C9.89551 22.8076 12.6094 28.1809 15.9907 28.1809Z" stroke="#141433" stroke-width="2" stroke-linecap="round" stroke-linejoin="round"/>
</svg>
